<svg id="Layer_1" xmlns="http://www.w3.org/2000/svg" viewBox="0 0 114 109.7">
  <style>
    .st0{fill:#274EA2;} .st1{fill:#010101;}
  </style>
  <g id="XMLID_2_">
    <g id="XMLID_22_">
      <path id="XMLID_23_" class="st0" d="M54.6 0C24.4 0 0 24.4 0 54.5 0 67.1 4.3 78.7 11.5 88l17.7-13.8c-4.2-5.4-6.7-12.3-6.7-19.7 0-14 8.9-25.8 21.4-30.3v59.5h21.6V24.2C78 28.6 86.9 40.5 86.9 54.5c0 7.4-2.5 14.2-6.7 19.7l17.7 13.7c7.2-9.2 11.4-20.8 11.4-33.4C109.2 24.4 84.7 0 54.6 0"/>
    </g>
    <g id="XMLID_18_">
      <path id="XMLID_19_" class="st1" d="M108.6 107c0-1.5 1.2-2.7 2.7-2.7 1.5 0 2.7 1.2 2.7 2.7 0 1.5-1.2 2.7-2.7 2.7-1.5 0-2.7-1.2-2.7-2.7m2.7 2.1c1.2 0 2.1-.9 2.1-2.1 0-1.2-.9-2.1-2.1-2.1-1.2 0-2.1.9-2.1 2.1 0 1.2.9 2.1 2.1 2.1"/>
    </g>
    <g id="XMLID_14_">
      <path id="XMLID_15_" class="st1" d="M110.8 106.7v-.7h.4c.2 0 .5 0 .5.3s-.2.4-.4.4h-.5zm0 .5h.3l.7 1.2h.7l-.7-1.2c.4 0 .7-.2.7-.7 0-.7-.4-.9-1.2-.9h-1.1v2.8h.6v-1.2z"/>
    </g>
    <g id="XMLID_3_">
      <path id="XMLID_4_" class="st1" d="M41.6 96.9H31.2c-2.6.1-3.9 1.3-3.9 3.6v5.5c0 1.3.3 2.2 1 2.8.7.6 1.7.9 3.2.9h10.4c2.6-.1 3.9-1.3 3.9-3.6v-5.5c-.1-2.5-1.5-3.7-4.2-3.7m.6 3.9V106.4H30.7V100h11.5v.8zm8.9-.8h10.6c.6 0 .9.3.9.8v.7c0 .6-.3.9-.9.9H51.1V100zm-3.5 9.5h3.5v-4h10.8c2.8 0 4.2-1.2 4.2-3.6v-1.4c0-2.4-1.4-3.6-4.2-3.6H47.6v12.6zm23.8-7v-1.6c0-.6.3-.9.9-.9h9.6c.6 0 .9.3.9.9v1.6H71.4zm14.9-2c0-2.4-1.3-3.6-3.8-3.6H72.1c-2.8 0-4.1 1.2-4.1 3.6v9.1h3.5v-4h11.4v4h3.5v-9.1zm5.4-.5h10.6c.6 0 .9.3.9.8v.7c0 .6-.3.9-.9.9H91.7V100zm-3.5 9.5h3.5v-4H98l4.6 4h5c-3.1-2.7-4.6-4-4.6-4 2.5 0 3.7-1.2 3.7-3.6v-1.4c0-2.4-1.4-3.6-4.1-3.6H88.2v12.6zm-86.5.1V96.9h3.6l8.3 8.3 8.4-8.3h3.5v12.7H22v-8.3l-8.4 8.3-8.3-8.3v8.3H1.7z"/>
    </g>
  </g>
</svg>